<svg width="10" height="15" viewBox="0 0 10 15" fill="none" xmlns="http://www.w3.org/2000/svg">
<path d="M8.87912 0H0.94459C0.42375 0 0 0.42375 0 0.94459V14.4333C0 14.6388 0.111269 14.8281 0.290742 14.9282C0.376699 14.9762 0.471738 15 0.566748 15C0.670283 15 0.773438 14.9718 0.864668 14.9156L4.91297 12.4162L8.96071 14.8974C9.13564 15.0049 9.35499 15.0093 9.53388 14.9088C9.71279 14.8086 9.82368 14.6196 9.82368 14.4144V0.94459C9.82368 0.42375 9.39996 0 8.87912 0ZM8.69019 13.4019L5.20825 11.2674C5.02576 11.1555 4.79604 11.1561 4.61411 11.2683L1.1335 13.4172V1.1335H8.69019V13.4019Z" fill="black" fill-opacity="0.3"/>
</svg>
