<svg width="15" height="15" viewBox="0 0 15 15" fill="none" xmlns="http://www.w3.org/2000/svg">
<path d="M14.4134 0H0.585939C0.262299 0 0 0.262299 0 0.585939C0 2.21764 0.699465 3.77541 1.91906 4.85952L4.48518 7.14033C4.93013 7.53584 5.18533 8.10415 5.18533 8.69959V14.4134C5.18533 14.8803 5.70718 15.1603 6.09617 14.9008L9.55309 12.5963C9.71606 12.4876 9.81402 12.3047 9.81402 12.1088V8.69959C9.81402 8.10415 10.0692 7.53584 10.5142 7.14033L13.0802 4.85952C14.2998 3.77541 14.9992 2.21764 14.9992 0.585939C14.9992 0.262299 14.7369 0 14.4134 0ZM12.3016 3.98358L9.73563 6.26451C9.04074 6.88226 8.64214 7.76976 8.64214 8.69948V11.7952L6.35709 13.3186V8.69959C6.35709 7.76976 5.95849 6.88226 5.26361 6.26451L2.69761 3.9837C1.87523 3.25253 1.35029 2.25071 1.20976 1.17176H13.7895C13.6489 2.25071 13.1241 3.25253 12.3016 3.98358Z" fill="black"/>
</svg>
