<svg width="15" height="14" viewBox="0 0 15 14" fill="none" xmlns="http://www.w3.org/2000/svg">
<path d="M13.7733 1.31029C12.9975 0.476347 11.9103 0.00184636 10.7712 8.7322e-05C9.63129 0.0014066 8.54298 0.475655 7.76593 1.30975L7.5011 1.5896L7.23627 1.30975C5.69438 -0.349741 3.09914 -0.445043 1.43965 1.09685C1.36611 1.1652 1.29509 1.23619 1.22674 1.30975C-0.408913 3.074 -0.408913 5.80057 1.22674 7.56483L7.11191 13.7711C7.31552 13.9861 7.65483 13.9953 7.86977 13.7917C7.87681 13.785 7.88366 13.7782 7.89032 13.7711L13.7734 7.56483C15.4089 5.80076 15.4089 3.07435 13.7733 1.31029Z" fill="#D5444C"/>
</svg>
