<svg width="17" height="15" viewBox="0 0 17 15" fill="none" xmlns="http://www.w3.org/2000/svg">
<path d="M14.8222 1.41007C13.9873 0.512622 12.8173 0.00198696 11.5915 9.39718e-05C10.3647 0.00151372 9.19355 0.511878 8.35732 1.40949L8.07233 1.71065L7.78733 1.40949C6.12802 -0.376375 3.33511 -0.478935 1.54928 1.18037C1.47014 1.25393 1.39372 1.33033 1.32016 1.40949C-0.440053 3.3081 -0.440053 6.2423 1.32016 8.14091L7.6535 14.8198C7.87262 15.0511 8.23776 15.061 8.46908 14.8419C8.47665 14.8348 8.48402 14.8274 8.49118 14.8198L14.8222 8.14091C16.5823 6.24251 16.5823 3.30847 14.8222 1.41007ZM13.9874 7.34649H13.9868L8.07233 13.5846L2.15727 7.34649C0.812567 5.89578 0.812567 3.65404 2.15727 2.20333C3.37842 0.879795 5.44134 0.796807 6.76488 2.01796C6.82914 2.07725 6.89096 2.13907 6.95026 2.20333L7.6535 2.94525C7.88526 3.17552 8.25943 3.17552 8.49118 2.94525L9.19443 2.20391C10.4156 0.880369 12.4785 0.797382 13.802 2.01853C13.8663 2.07782 13.9281 2.13965 13.9874 2.20391C15.3438 3.65692 15.3538 5.90275 13.9874 7.34649Z" fill="black" fill-opacity="0.3"/>
</svg>
