<svg width="15" height="15" viewBox="0 0 15 15" fill="none" xmlns="http://www.w3.org/2000/svg">
<path d="M14.8186 3.8667L11.1333 0.181359C10.8915 -0.060453 10.5027 -0.060453 10.2609 0.181359L6.57864 3.8667C6.33682 4.10851 6.33682 4.49725 6.57864 4.73906C6.82045 4.98087 7.20918 4.98087 7.451 4.73906L10.0742 2.11586V12.9148C10.0742 13.2606 10.3527 13.5392 10.6986 13.5392C11.0445 13.5392 11.3231 13.2606 11.3231 12.9148V2.11586L13.9463 4.73906C14.1881 4.98087 14.5768 4.98087 14.8186 4.73906C15.0604 4.50031 15.0604 4.10851 14.8186 3.8667Z" fill="black"/>
<path d="M8.42133 10.2609C8.17952 10.0191 7.79079 10.0191 7.54897 10.2609L4.92577 12.8841V2.08525C4.92577 1.73937 4.64723 1.46082 4.30135 1.46082C3.95546 1.46082 3.67692 1.73937 3.67692 2.08525V12.8841L1.05372 10.2609C0.811907 10.0191 0.423171 10.0191 0.181359 10.2609C-0.060453 10.5028 -0.060453 10.8915 0.181359 11.1333L3.8667 14.8186C4.10851 15.0605 4.49725 15.0605 4.73906 14.8186L8.4244 11.1333C8.66315 10.8915 8.66315 10.4997 8.42133 10.2609Z" fill="black"/>
</svg>
